<mxfile host="65bd71144e">
    <diagram id="stDqrKDo_g_i0ZKUVLcY" name="Page-1">
        <mxGraphModel dx="667" dy="437" grid="1" gridSize="10" guides="1" tooltips="1" connect="1" arrows="1" fold="1" page="1" pageScale="1" pageWidth="827" pageHeight="1169" math="0" shadow="0">
            <root>
                <mxCell id="0"/>
                <mxCell id="1" parent="0"/>
                <mxCell id="6" style="edgeStyle=none;html=1;endArrow=none;endFill=0;entryX=0;entryY=0.5;entryDx=0;entryDy=0;entryPerimeter=0;rounded=0;sketch=1;" parent="1" source="2" target="15" edge="1">
                    <mxGeometry relative="1" as="geometry">
                        <mxPoint x="290" y="630" as="targetPoint"/>
                        <Array as="points">
                            <mxPoint x="310" y="350"/>
                            <mxPoint x="290" y="350"/>
                            <mxPoint x="290" y="390"/>
                        </Array>
                    </mxGeometry>
                </mxCell>
                <mxCell id="9" value="GDN" style="edgeLabel;html=1;align=center;verticalAlign=middle;resizable=0;points=[];rounded=0;sketch=1;" parent="6" vertex="1" connectable="0">
                    <mxGeometry x="-0.6508" y="2" relative="1" as="geometry">
                        <mxPoint x="29" y="-2" as="offset"/>
                    </mxGeometry>
                </mxCell>
                <mxCell id="2" value="STM32" style="shape=ext;double=1;whiteSpace=wrap;html=1;aspect=fixed;rounded=0;sketch=1;" parent="1" vertex="1">
                    <mxGeometry x="380" y="310" width="80" height="80" as="geometry"/>
                </mxCell>
                <mxCell id="3" value="" style="shape=mxgraph.pid.feeders.feeder_(rotary_table);html=1;pointerEvents=1;align=center;verticalLabelPosition=bottom;verticalAlign=top;dashed=0;rounded=0;direction=south;sketch=1;" parent="1" vertex="1">
                    <mxGeometry x="140" y="350" width="60" height="60" as="geometry"/>
                </mxCell>
                <mxCell id="18" style="edgeStyle=none;html=1;exitX=0;exitY=0.54;exitDx=0;exitDy=0;exitPerimeter=0;endArrow=none;endFill=0;entryX=1;entryY=0.75;entryDx=0;entryDy=0;rounded=0;sketch=1;" parent="1" source="4" target="2" edge="1">
                    <mxGeometry relative="1" as="geometry">
                        <mxPoint x="490.19047619047615" y="380" as="targetPoint"/>
                        <Array as="points">
                            <mxPoint x="490" y="370"/>
                        </Array>
                    </mxGeometry>
                </mxCell>
                <mxCell id="21" value="PB3" style="edgeLabel;html=1;align=center;verticalAlign=middle;resizable=0;points=[];rounded=0;sketch=1;" parent="18" vertex="1" connectable="0">
                    <mxGeometry x="0.8496" relative="1" as="geometry">
                        <mxPoint x="10" as="offset"/>
                    </mxGeometry>
                </mxCell>
                <mxCell id="4" value="" style="verticalLabelPosition=bottom;shadow=0;dashed=0;align=center;html=1;verticalAlign=top;shape=mxgraph.electrical.opto_electronics.led_1;pointerEvents=1;direction=west;rounded=0;sketch=1;" parent="1" vertex="1">
                    <mxGeometry x="390" y="440" width="100" height="65" as="geometry"/>
                </mxCell>
                <mxCell id="19" style="edgeStyle=none;html=1;exitX=0;exitY=0.54;exitDx=0;exitDy=0;exitPerimeter=0;endArrow=none;endFill=0;entryX=1;entryY=0.5;entryDx=0;entryDy=0;rounded=0;sketch=1;" parent="1" source="5" edge="1" target="2">
                    <mxGeometry relative="1" as="geometry">
                        <mxPoint x="460" y="359" as="targetPoint"/>
                        <Array as="points">
                            <mxPoint x="500" y="550"/>
                            <mxPoint x="500" y="350"/>
                        </Array>
                    </mxGeometry>
                </mxCell>
                <mxCell id="22" value="PB5" style="edgeLabel;html=1;align=center;verticalAlign=middle;resizable=0;points=[];rounded=0;sketch=1;" parent="19" vertex="1" connectable="0">
                    <mxGeometry x="0.911" relative="1" as="geometry">
                        <mxPoint x="9" as="offset"/>
                    </mxGeometry>
                </mxCell>
                <mxCell id="5" value="" style="verticalLabelPosition=bottom;shadow=0;dashed=0;align=center;html=1;verticalAlign=top;shape=mxgraph.electrical.opto_electronics.led_1;pointerEvents=1;direction=west;rounded=0;sketch=1;" parent="1" vertex="1">
                    <mxGeometry x="390" y="520" width="100" height="65" as="geometry"/>
                </mxCell>
                <mxCell id="13" value="220 &lt;b&gt;Ω&lt;/b&gt;" style="pointerEvents=1;verticalLabelPosition=bottom;shadow=0;dashed=0;align=center;html=1;verticalAlign=top;shape=mxgraph.electrical.resistors.resistor_1;rounded=0;sketch=1;" parent="1" vertex="1">
                    <mxGeometry x="290" y="452.5" width="100" height="20" as="geometry"/>
                </mxCell>
                <mxCell id="14" style="edgeStyle=none;html=1;exitX=1;exitY=0.5;exitDx=0;exitDy=0;exitPerimeter=0;endArrow=none;endFill=0;rounded=0;sketch=1;" parent="1" source="13" edge="1">
                    <mxGeometry relative="1" as="geometry">
                        <mxPoint x="390" y="462" as="targetPoint"/>
                        <Array as="points">
                            <mxPoint x="390" y="470"/>
                        </Array>
                    </mxGeometry>
                </mxCell>
                <mxCell id="15" value="220&amp;nbsp;&lt;b&gt;Ω&lt;/b&gt;" style="pointerEvents=1;verticalLabelPosition=bottom;shadow=0;dashed=0;align=center;html=1;verticalAlign=top;shape=mxgraph.electrical.resistors.resistor_1;rounded=0;sketch=1;" parent="1" vertex="1">
                    <mxGeometry x="290" y="530" width="100" height="20" as="geometry"/>
                </mxCell>
                <mxCell id="16" style="edgeStyle=none;html=1;exitX=1;exitY=0.5;exitDx=0;exitDy=0;exitPerimeter=0;entryX=1.001;entryY=1.005;entryDx=0;entryDy=0;entryPerimeter=0;endArrow=none;endFill=0;rounded=0;sketch=1;" parent="1" source="15" target="15" edge="1">
                    <mxGeometry relative="1" as="geometry"/>
                </mxCell>
                <mxCell id="17" style="edgeStyle=none;html=1;exitX=1;exitY=0.54;exitDx=0;exitDy=0;exitPerimeter=0;entryX=1.002;entryY=0.613;entryDx=0;entryDy=0;entryPerimeter=0;endArrow=none;endFill=0;rounded=0;sketch=1;" parent="1" source="4" target="4" edge="1">
                    <mxGeometry relative="1" as="geometry"/>
                </mxCell>
                <mxCell id="30" style="edgeStyle=none;html=1;endArrow=none;endFill=0;rounded=0;sketch=1;" edge="1" parent="1">
                    <mxGeometry relative="1" as="geometry">
                        <mxPoint x="290" y="390" as="targetPoint"/>
                        <mxPoint x="200" y="390" as="sourcePoint"/>
                    </mxGeometry>
                </mxCell>
                <mxCell id="31" style="edgeStyle=none;html=1;endArrow=none;endFill=0;entryX=0;entryY=0.75;entryDx=0;entryDy=0;exitX=0.837;exitY=-0.005;exitDx=0;exitDy=0;exitPerimeter=0;rounded=0;sketch=1;" edge="1" parent="1" source="3" target="2">
                    <mxGeometry relative="1" as="geometry">
                        <mxPoint x="360" y="400" as="targetPoint"/>
                        <mxPoint x="200" y="400" as="sourcePoint"/>
                        <Array as="points">
                            <mxPoint x="230" y="400"/>
                            <mxPoint x="340" y="400"/>
                            <mxPoint x="340" y="370"/>
                        </Array>
                    </mxGeometry>
                </mxCell>
                <mxCell id="37" value="3.3V" style="edgeLabel;html=1;align=center;verticalAlign=middle;resizable=0;points=[];rounded=0;sketch=1;" vertex="1" connectable="0" parent="31">
                    <mxGeometry x="0.7704" relative="1" as="geometry">
                        <mxPoint x="4" as="offset"/>
                    </mxGeometry>
                </mxCell>
                <mxCell id="32" style="edgeStyle=none;html=1;endArrow=none;endFill=0;rounded=0;sketch=1;" edge="1" parent="1">
                    <mxGeometry relative="1" as="geometry">
                        <mxPoint x="260" y="360" as="targetPoint"/>
                        <mxPoint x="200" y="360" as="sourcePoint"/>
                        <Array as="points">
                            <mxPoint x="240" y="360"/>
                        </Array>
                    </mxGeometry>
                </mxCell>
                <mxCell id="39" value="DT" style="edgeLabel;html=1;align=center;verticalAlign=middle;resizable=0;points=[];rounded=0;sketch=1;" vertex="1" connectable="0" parent="32">
                    <mxGeometry x="-0.2294" relative="1" as="geometry">
                        <mxPoint x="-3" as="offset"/>
                    </mxGeometry>
                </mxCell>
                <mxCell id="33" style="edgeStyle=none;html=1;endArrow=none;endFill=0;rounded=0;sketch=1;" edge="1" parent="1">
                    <mxGeometry relative="1" as="geometry">
                        <mxPoint x="270" y="380" as="targetPoint"/>
                        <mxPoint x="200" y="379.83" as="sourcePoint"/>
                        <Array as="points">
                            <mxPoint x="270" y="380"/>
                        </Array>
                    </mxGeometry>
                </mxCell>
                <mxCell id="40" value="CLK" style="edgeLabel;html=1;align=center;verticalAlign=middle;resizable=0;points=[];rounded=0;sketch=1;" vertex="1" connectable="0" parent="33">
                    <mxGeometry x="-0.3405" y="1" relative="1" as="geometry">
                        <mxPoint x="-3" y="1" as="offset"/>
                    </mxGeometry>
                </mxCell>
                <mxCell id="41" style="edgeStyle=none;html=1;endArrow=none;endFill=0;rounded=0;sketch=1;" edge="1" parent="1">
                    <mxGeometry relative="1" as="geometry">
                        <mxPoint x="250" y="330" as="targetPoint"/>
                        <mxPoint x="250" y="380" as="sourcePoint"/>
                    </mxGeometry>
                </mxCell>
                <mxCell id="43" style="edgeStyle=none;html=1;endArrow=none;endFill=0;exitX=0;exitY=0.25;exitDx=0;exitDy=0;rounded=0;sketch=1;" edge="1" parent="1" source="2">
                    <mxGeometry relative="1" as="geometry">
                        <mxPoint x="250" y="330" as="targetPoint"/>
                        <mxPoint x="320" y="370" as="sourcePoint"/>
                    </mxGeometry>
                </mxCell>
                <mxCell id="44" value="PA1" style="edgeLabel;html=1;align=center;verticalAlign=middle;resizable=0;points=[];rounded=0;sketch=1;" vertex="1" connectable="0" parent="43">
                    <mxGeometry x="-0.2257" relative="1" as="geometry">
                        <mxPoint x="11" as="offset"/>
                    </mxGeometry>
                </mxCell>
                <mxCell id="45" style="edgeStyle=none;html=1;endArrow=none;endFill=0;rounded=0;sketch=1;" edge="1" parent="1">
                    <mxGeometry relative="1" as="geometry">
                        <mxPoint x="240" y="310" as="targetPoint"/>
                        <mxPoint x="240" y="360" as="sourcePoint"/>
                    </mxGeometry>
                </mxCell>
                <mxCell id="46" style="edgeStyle=none;html=1;endArrow=none;endFill=0;exitX=0;exitY=0;exitDx=0;exitDy=0;rounded=0;sketch=1;" edge="1" parent="1" source="2">
                    <mxGeometry relative="1" as="geometry">
                        <mxPoint x="240" y="310" as="targetPoint"/>
                        <mxPoint x="390" y="300" as="sourcePoint"/>
                    </mxGeometry>
                </mxCell>
                <mxCell id="48" value="PA0" style="edgeLabel;html=1;align=center;verticalAlign=middle;resizable=0;points=[];rounded=0;sketch=1;" vertex="1" connectable="0" parent="46">
                    <mxGeometry x="-0.3445" relative="1" as="geometry">
                        <mxPoint x="3" as="offset"/>
                    </mxGeometry>
                </mxCell>
                <mxCell id="49" style="edgeStyle=none;html=1;endArrow=none;endFill=0;rounded=0;sketch=1;" edge="1" parent="1">
                    <mxGeometry relative="1" as="geometry">
                        <mxPoint x="270" y="370" as="targetPoint"/>
                        <mxPoint x="270" y="390" as="sourcePoint"/>
                    </mxGeometry>
                </mxCell>
                <mxCell id="50" style="edgeStyle=none;html=1;endArrow=none;endFill=0;rounded=0;sketch=1;" edge="1" parent="1">
                    <mxGeometry relative="1" as="geometry">
                        <mxPoint x="280" y="370" as="targetPoint"/>
                        <mxPoint x="280" y="390" as="sourcePoint"/>
                    </mxGeometry>
                </mxCell>
                <mxCell id="51" style="edgeStyle=none;html=1;endArrow=none;endFill=0;rounded=0;sketch=1;" edge="1" parent="1">
                    <mxGeometry relative="1" as="geometry">
                        <mxPoint x="290" y="380" as="targetPoint"/>
                        <mxPoint x="280" y="380" as="sourcePoint"/>
                    </mxGeometry>
                </mxCell>
                <mxCell id="52" style="edgeStyle=none;html=1;endArrow=none;endFill=0;rounded=0;sketch=1;" edge="1" parent="1">
                    <mxGeometry relative="1" as="geometry">
                        <mxPoint x="260" y="350" as="targetPoint"/>
                        <mxPoint x="260" y="370" as="sourcePoint"/>
                    </mxGeometry>
                </mxCell>
                <mxCell id="53" style="edgeStyle=none;html=1;endArrow=none;endFill=0;rounded=0;sketch=1;" edge="1" parent="1">
                    <mxGeometry relative="1" as="geometry">
                        <mxPoint x="270" y="350" as="targetPoint"/>
                        <mxPoint x="270" y="370" as="sourcePoint"/>
                    </mxGeometry>
                </mxCell>
                <mxCell id="54" style="edgeStyle=none;html=1;endArrow=none;endFill=0;rounded=0;sketch=1;" edge="1" parent="1">
                    <mxGeometry relative="1" as="geometry">
                        <mxPoint x="290" y="360" as="targetPoint"/>
                        <mxPoint x="270" y="360" as="sourcePoint"/>
                    </mxGeometry>
                </mxCell>
            </root>
        </mxGraphModel>
    </diagram>
</mxfile>